<svg width="16" height="17" viewBox="0 0 16 17" fill="none" xmlns="http://www.w3.org/2000/svg">
<g clip-path="url(#clip0_2797_514)">
<path d="M4.3136 1.15234C3.20333 1.7293 2.2437 2.55838 1.51164 3.57311C0.779586 4.58783 0.295478 5.75997 0.0981333 6.99554H0.562133C3.55413 6.92621 5.89973 6.66701 7.81547 6.08034C6.98347 4.60514 5.968 3.15768 4.74987 1.68568L4.7488 1.68461L4.3136 1.15234ZM0.00213333 8.06221L0 8.25421C0 10.4057 0.849067 12.3587 2.2304 13.7966L2.40213 13.451C2.41168 13.4319 2.42236 13.4134 2.43413 13.3955C4.20267 10.7054 6.20373 9.10541 8.4416 8.38754C8.59307 8.33848 8.74667 8.29368 8.90027 8.25314C8.72109 7.84238 8.53008 7.43687 8.32747 7.03714C6.23147 7.71234 3.712 7.98968 0.580267 8.06114H0.0032L0.00213333 8.06221Z" fill="white"/>
<path d="M3.05078 14.5398C4.46018 15.6527 6.20428 16.2568 8.00012 16.2539C8.95265 16.2539 9.86678 16.0875 10.7126 15.7824V15.0144C10.4524 12.9504 9.99478 11.0571 9.30678 9.25018C9.12545 9.29498 8.94518 9.34618 8.76705 9.40271C6.82358 10.0267 5.00705 11.4326 3.34305 13.9552L3.05185 14.5398H3.05078ZM11.7793 15.3067C12.8104 14.7534 13.7078 13.981 14.4085 13.0438C15.1091 12.1065 15.5959 11.0272 15.8348 9.88165L15.2321 9.60965C13.4977 9.09978 11.8817 8.89071 10.3756 9.06031C11.0561 10.895 11.5137 12.8214 11.775 14.9142C11.7782 14.9355 11.7793 14.9568 11.7793 14.9803V15.3067ZM15.983 8.77871C16.1239 6.68345 15.432 4.61729 14.0577 3.02938L13.7409 3.38032C12.4929 4.89818 11.0678 5.95098 9.33558 6.66778C9.56172 7.12005 9.77292 7.57551 9.96812 8.03738C11.7516 7.78138 13.6268 8.02245 15.5692 8.59738C15.5929 8.60429 15.616 8.61285 15.6385 8.62298L15.983 8.77871ZM13.3078 2.26778C11.8457 0.967793 9.95657 0.250998 8.00012 0.253915C7.06358 0.253915 6.16545 0.413915 5.33025 0.710448L5.57345 1.00698C6.87478 2.57818 7.95425 4.13125 8.83532 5.71951C10.4812 5.05498 11.7857 4.08325 12.9249 2.69338C12.9301 2.68685 12.9354 2.68045 12.9409 2.67418L13.3078 2.26885V2.26778Z" fill="white"/>
</g>
<defs>
<clipPath id="clip0_2797_514">
<rect width="16" height="16" fill="white" transform="translate(0 0.253906)"/>
</clipPath>
</defs>
</svg>
