<svg width="16" height="17" viewBox="0 0 16 17" fill="none" xmlns="http://www.w3.org/2000/svg">
<path d="M4.134 14.2539H1.2315V4.90691H4.134V14.2539ZM2.681 3.63191C1.753 3.63191 1 2.86291 1 1.93491C1 1.48908 1.1771 1.06151 1.49235 0.74626C1.8076 0.431011 2.23517 0.253906 2.681 0.253906C3.12683 0.253906 3.5544 0.431011 3.86965 0.74626C4.1849 1.06151 4.362 1.48908 4.362 1.93491C4.362 2.86291 3.609 3.63191 2.681 3.63191ZM14.997 14.2539H12.101V9.70391C12.101 8.61941 12.079 7.22891 10.592 7.22891C9.083 7.22891 8.8515 8.40691 8.8515 9.62591V14.2539H5.952V4.90691H8.7355V6.18191H8.776C9.1635 5.44741 10.11 4.67241 11.522 4.67241C14.4595 4.67241 14.9995 6.60691 14.9995 9.11941V14.2539H14.997Z" fill="white"/>
</svg>
