<svg width="16" height="17" viewBox="0 0 16 17" fill="none" xmlns="http://www.w3.org/2000/svg">
<path d="M15 8.25391C15 10.1039 14.7 11.6039 14.3 11.6039C13.9 11.6039 13.6 10.1039 13.6 8.25391C13.6 6.40391 13.9 4.90391 14.3 4.90391C14.7 4.90391 15 6.40391 15 8.25391ZM13.25 8.25391C13.25 10.3039 12.35 12.0039 11.3 12.0039C10.25 12.0039 9.35 10.3039 9.35 8.25391C9.35 6.20391 10.25 4.50391 11.3 4.50391C12.35 4.50391 13.25 6.20391 13.25 8.25391ZM8.9 8.25391C8.9 10.4539 7.15 12.2539 4.95 12.2539C2.75 12.2539 1 10.4539 1 8.25391C1 6.05391 2.75 4.25391 4.95 4.25391C7.15 4.25391 8.9 6.05391 8.9 8.25391Z" fill="white"/>
</svg>
