<svg width="16" height="17" viewBox="0 0 16 17" fill="none" xmlns="http://www.w3.org/2000/svg">
<path d="M14.9733 4.25326C14.4599 4.48659 13.9066 4.63992 13.3333 4.71326C13.9199 4.35992 14.3733 3.79992 14.5866 3.12659C14.0333 3.45992 13.4199 3.69326 12.7733 3.82659C12.2466 3.25326 11.5066 2.91992 10.6666 2.91992C9.09995 2.91992 7.81994 4.19992 7.81994 5.77992C7.81994 6.00659 7.84661 6.22659 7.89328 6.43326C5.51995 6.31326 3.40661 5.17325 1.99994 3.44659C1.75328 3.86659 1.61328 4.35992 1.61328 4.87992C1.61328 5.87326 2.11328 6.75325 2.88661 7.25325C2.41328 7.25325 1.97328 7.11992 1.58661 6.91992V6.93992C1.58661 8.32659 2.57328 9.48659 3.87994 9.74659C3.46043 9.86139 3.02001 9.87737 2.59328 9.79325C2.77435 10.3616 3.12897 10.8589 3.60729 11.2152C4.08561 11.5716 4.66358 11.769 5.25994 11.7799C4.24903 12.5802 2.99594 13.0128 1.70661 13.0066C1.47994 13.0066 1.25328 12.9933 1.02661 12.9666C2.29328 13.7799 3.79994 14.2533 5.41328 14.2533C10.6666 14.2533 13.5533 9.89325 13.5533 6.11326C13.5533 5.98659 13.5533 5.86659 13.5466 5.73992C14.1066 5.33992 14.5866 4.83326 14.9733 4.25326Z" fill="white"/>
</svg>
